{
	"asset":{
		"generator":"Khronos glTF Blender I/O v4.0.44",
		"version":"2.0"
	},
	"extensionsUsed":[
		"KHR_materials_emissive_strength"
	],
	"scene":0,
	"scenes":[
		{
			"name":"Scene",
			"nodes":[
				0,
				1,
				4,
				5,
				6,
				7,
				8,
				9,
				10,
				11,
				12,
				13
			]
		}
	],
	"nodes":[
		{
			"name":"\u6b63\u9762",
			"rotation":[
				0.70710688829422,
				0,
				0,
				0.7071066498756409
			],
			"scale":[
				0.8709104657173157,
				0.8709104657173157,
				0.8709104657173157
			],
			"translation":[
				0.006216144654899836,
				0.20513270795345306,
				-3.4982705116271973
			]
		},
		{
			"name":"\u6a2a",
			"rotation":[
				0.5,
				0.5,
				-0.5,
				0.5
			],
			"scale":[
				0.8950831294059753,
				0.8950831294059753,
				0.8950831294059753
			],
			"translation":[
				-2.4538228511810303,
				0.3045910596847534,
				-0.4972915053367615
			]
		},
		{
			"mesh":0,
			"name":"\u53f3\u8033",
			"rotation":[
				0.043470241129398346,
				0.03366893529891968,
				0.5039641857147217,
				0.8619726896286011
			],
			"translation":[
				-2.1027657985687256,
				-1.0546468496322632,
				0.41900134086608887
			]
		},
		{
			"mesh":1,
			"name":"\u5de6\u8033",
			"rotation":[
				0.043470241129398346,
				0.03366893529891968,
				0.5039641857147217,
				0.8619726896286011
			],
			"translation":[
				-2.1027657985687256,
				1.0546467304229736,
				0.41900134086608887
			]
		},
		{
			"children":[
				2,
				3
			],
			"mesh":2,
			"name":"\u80f4\u4f53",
			"rotation":[
				0,
				0,
				-0.7071068286895752,
				0.7071068286895752
			],
			"translation":[
				0,
				-1.4997494220733643,
				0
			]
		},
		{
			"mesh":3,
			"name":"\u3057\u3063\u307d",
			"scale":[
				0.20009613037109375,
				0.20009613037109375,
				0.20009613037109375
			],
			"translation":[
				0,
				-0.6096329092979431,
				-1.3308886289596558
			]
		},
		{
			"mesh":4,
			"name":"\u307b\u3063\u307a\u53f3",
			"rotation":[
				0.7071068286895752,
				0,
				0,
				0.7071067690849304
			],
			"scale":[
				-0.011085033416748047,
				-0.011085033416748047,
				-0.011085033416748047
			],
			"translation":[
				-0.45724451541900635,
				0.36196228861808777,
				1.1566962003707886
			]
		},
		{
			"mesh":5,
			"name":"\u53e3\u4e0a",
			"rotation":[
				0.6031850576400757,
				0,
				0,
				0.7976012825965881
			],
			"scale":[
				-0.056722044944763184,
				-0.056722044944763184,
				-0.056722044944763184
			],
			"translation":[
				0.05432648956775665,
				0.34939953684806824,
				1.239248514175415
			]
		},
		{
			"mesh":6,
			"name":"\u53e3\u4e0b",
			"rotation":[
				0.6031850576400757,
				0,
				0,
				0.7976012825965881
			],
			"scale":[
				-0.056722044944763184,
				-0.056722044944763184,
				-0.056722044944763184
			],
			"translation":[
				0.05432648956775665,
				0.34939953684806824,
				1.239248514175415
			]
		},
		{
			"mesh":7,
			"name":"\u307b\u3063\u307a\u5de6",
			"rotation":[
				0.7071068286895752,
				0,
				0,
				0.7071067690849304
			],
			"scale":[
				-0.011085033416748047,
				-0.011085033416748047,
				-0.011085033416748047
			],
			"translation":[
				0.43367239832878113,
				0.36153218150138855,
				1.1619608402252197
			]
		},
		{
			"mesh":8,
			"name":"\u53f3ASAHISAI",
			"rotation":[
				0.32999053597450256,
				-0.5077910423278809,
				0.4978989362716675,
				0.6207665801048279
			],
			"scale":[
				0.19372154772281647,
				0.19372154772281647,
				0.19372154772281647
			],
			"translation":[
				-1.2758188247680664,
				-0.029984325170516968,
				-0.0016922131180763245
			]
		},
		{
			"mesh":9,
			"name":"\u5de6ASAHISAI",
			"rotation":[
				0.4978989362716675,
				0.6207665801048279,
				-0.3299904763698578,
				0.5077911019325256
			],
			"scale":[
				0.19372154772281647,
				0.19372154772281647,
				0.19372154772281647
			],
			"translation":[
				1.2737926244735718,
				-0.02998441457748413,
				-0.0016921907663345337
			]
		},
		{
			"mesh":10,
			"name":"\u76ee",
			"rotation":[
				0.7071068286895752,
				0,
				0,
				0.7071068286895752
			],
			"scale":[
				0.07168853282928467,
				0.07168853282928467,
				0.07168853282928467
			],
			"translation":[
				0,
				0,
				1.3448069095611572
			]
		},
		{
			"mesh":11,
			"name":"\u9854\u5468\u308a",
			"rotation":[
				0,
				0,
				-0.7071068286895752,
				0.7071068286895752
			],
			"translation":[
				0,
				-1.4997494220733643,
				0
			]
		}
	],
	"animations":[
		{
			"channels":[
				{
					"sampler":0,
					"target":{
						"node":2,
						"path":"rotation"
					}
				}
			],
			"name":"\u53f3\u8033Action",
			"samplers":[
				{
					"input":52,
					"interpolation":"LINEAR",
					"output":53
				}
			]
		},
		{
			"channels":[
				{
					"sampler":0,
					"target":{
						"node":3,
						"path":"rotation"
					}
				}
			],
			"name":"\u5de6\u8033Action",
			"samplers":[
				{
					"input":52,
					"interpolation":"LINEAR",
					"output":54
				}
			]
		},
		{
			"channels":[
				{
					"sampler":0,
					"target":{
						"node":6,
						"path":"rotation"
					}
				}
			],
			"name":"\u307b\u3063\u307a\u5de6Action",
			"samplers":[
				{
					"input":55,
					"interpolation":"LINEAR",
					"output":56
				}
			]
		},
		{
			"channels":[
				{
					"sampler":0,
					"target":{
						"node":8,
						"path":"weights"
					}
				}
			],
			"name":"Key.008Action",
			"samplers":[
				{
					"input":52,
					"interpolation":"LINEAR",
					"output":57
				}
			]
		},
		{
			"channels":[
				{
					"sampler":0,
					"target":{
						"node":9,
						"path":"rotation"
					}
				}
			],
			"name":"\u307b\u3063\u307a\u5de6Action.001",
			"samplers":[
				{
					"input":55,
					"interpolation":"LINEAR",
					"output":58
				}
			]
		},
		{
			"channels":[
				{
					"sampler":0,
					"target":{
						"node":10,
						"path":"rotation"
					}
				}
			],
			"name":"\u53f3ASAHISAIAction",
			"samplers":[
				{
					"input":52,
					"interpolation":"LINEAR",
					"output":59
				}
			]
		},
		{
			"channels":[
				{
					"sampler":0,
					"target":{
						"node":11,
						"path":"rotation"
					}
				}
			],
			"name":"\u5de6ASAHISAIAction",
			"samplers":[
				{
					"input":52,
					"interpolation":"LINEAR",
					"output":60
				}
			]
		},
		{
			"channels":[
				{
					"sampler":0,
					"target":{
						"node":12,
						"path":"weights"
					}
				}
			],
			"name":"Key.004Action",
			"samplers":[
				{
					"input":52,
					"interpolation":"LINEAR",
					"output":61
				}
			]
		}
	],
	"materials":[
		{
			"doubleSided":true,
			"name":"\u30de\u30c6\u30ea\u30a2\u30eb",
			"pbrMetallicRoughness":{
				"baseColorTexture":{
					"index":0
				},
				"metallicFactor":0,
				"roughnessFactor":0.3799999952316284
			}
		},
		{
			"doubleSided":true,
			"emissiveFactor":[
				1,
				1,
				1
			],
			"emissiveTexture":{
				"index":1
			},
			"extensions":{
				"KHR_materials_emissive_strength":{
					"emissiveStrength":2.100001335144043
				}
			},
			"name":"\u30de\u30c6\u30ea\u30a2\u30eb.005",
			"pbrMetallicRoughness":{
				"baseColorFactor":[
					0,
					0,
					0,
					1
				]
			}
		}
	],
	"meshes":[
		{
			"name":"\u5186\u67f1.001",
			"primitives":[
				{
					"attributes":{
						"POSITION":0,
						"NORMAL":1,
						"TEXCOORD_0":2
					},
					"indices":3,
					"material":0
				}
			]
		},
		{
			"name":"\u5186\u67f1.003",
			"primitives":[
				{
					"attributes":{
						"POSITION":4,
						"NORMAL":5,
						"TEXCOORD_0":6
					},
					"indices":7,
					"material":0
				}
			]
		},
		{
			"name":"\u5e73\u9762.001",
			"primitives":[
				{
					"attributes":{
						"POSITION":8,
						"NORMAL":9,
						"TEXCOORD_0":10
					},
					"indices":11,
					"material":0
				}
			]
		},
		{
			"name":"\u7403.001",
			"primitives":[
				{
					"attributes":{
						"POSITION":12,
						"NORMAL":13,
						"TEXCOORD_0":14
					},
					"indices":15,
					"material":0
				}
			]
		},
		{
			"name":"\u5e73\u9762.004",
			"primitives":[
				{
					"attributes":{
						"POSITION":16,
						"NORMAL":17,
						"TEXCOORD_0":18
					},
					"indices":19,
					"material":1
				}
			]
		},
		{
			"name":"\u5e73\u9762",
			"primitives":[
				{
					"attributes":{
						"POSITION":20,
						"NORMAL":21,
						"TEXCOORD_0":22
					},
					"indices":23,
					"material":1
				}
			]
		},
		{
			"extras":{
				"targetNames":[
					"\u53e3\u958b\u304f"
				]
			},
			"name":"\u5e73\u9762.002",
			"primitives":[
				{
					"attributes":{
						"POSITION":24,
						"NORMAL":25,
						"TEXCOORD_0":26
					},
					"indices":23,
					"material":1,
					"targets":[
						{
							"POSITION":27,
							"NORMAL":28
						}
					]
				}
			],
			"weights":[
				0
			]
		},
		{
			"name":"\u5e73\u9762.003",
			"primitives":[
				{
					"attributes":{
						"POSITION":29,
						"NORMAL":30,
						"TEXCOORD_0":31
					},
					"indices":19,
					"material":1
				}
			]
		},
		{
			"name":"\u30c6\u30ad\u30b9\u30c8.014",
			"primitives":[
				{
					"attributes":{
						"POSITION":32,
						"NORMAL":33,
						"TEXCOORD_0":34
					},
					"indices":35,
					"material":1
				}
			]
		},
		{
			"name":"\u30c6\u30ad\u30b9\u30c8.011",
			"primitives":[
				{
					"attributes":{
						"POSITION":36,
						"NORMAL":37,
						"TEXCOORD_0":38
					},
					"indices":39,
					"material":1
				}
			]
		},
		{
			"extras":{
				"targetNames":[
					"\u304e\u3085\u3063",
					"\u306c\u30fc\u3093"
				]
			},
			"name":"\u5186.001",
			"primitives":[
				{
					"attributes":{
						"POSITION":40,
						"NORMAL":41,
						"TEXCOORD_0":42
					},
					"indices":43,
					"material":1,
					"targets":[
						{
							"POSITION":44,
							"NORMAL":45
						},
						{
							"POSITION":46,
							"NORMAL":47
						}
					]
				}
			],
			"weights":[
				0,
				0
			]
		},
		{
			"name":"\u5e73\u9762.006",
			"primitives":[
				{
					"attributes":{
						"POSITION":48,
						"NORMAL":49,
						"TEXCOORD_0":50
					},
					"indices":51,
					"material":1
				}
			]
		}
	],
	"textures":[
		{
			"sampler":0,
			"source":0
		},
		{
			"sampler":0,
			"source":0
		}
	],
	"images":[
		{
			"mimeType":"image/png",
			"name":"pink",
			"uri":"pink.png"
		}
	],
	"accessors":[
		{
			"bufferView":0,
			"componentType":5126,
			"count":1220,
			"max":[
				0.00436246395111084,
				0.6230773329734802,
				0.08304005116224289
			],
			"min":[
				-1.8689258098602295,
				-0.04430651664733887,
				-2.838914632797241
			],
			"type":"VEC3"
		},
		{
			"bufferView":1,
			"componentType":5126,
			"count":1220,
			"type":"VEC3"
		},
		{
			"bufferView":2,
			"componentType":5126,
			"count":1220,
			"type":"VEC2"
		},
		{
			"bufferView":3,
			"componentType":5123,
			"count":6234,
			"type":"SCALAR"
		},
		{
			"bufferView":4,
			"componentType":5126,
			"count":1220,
			"max":[
				0.5421159267425537,
				1.750380516052246,
				0.07932545989751816
			],
			"min":[
				-0.15311682224273682,
				-0.00043020397424697876,
				-2.935459852218628
			],
			"type":"VEC3"
		},
		{
			"bufferView":5,
			"componentType":5126,
			"count":1220,
			"type":"VEC3"
		},
		{
			"bufferView":6,
			"componentType":5126,
			"count":1220,
			"type":"VEC2"
		},
		{
			"bufferView":7,
			"componentType":5123,
			"count":6234,
			"type":"SCALAR"
		},
		{
			"bufferView":8,
			"componentType":5126,
			"count":10895,
			"max":[
				0.17698796093463898,
				1.2677197456359863,
				1.2809362411499023
			],
			"min":[
				-2.7944390773773193,
				-1.2677197456359863,
				-1.3171311616897583
			],
			"type":"VEC3"
		},
		{
			"bufferView":9,
			"componentType":5126,
			"count":10895,
			"type":"VEC3"
		},
		{
			"bufferView":10,
			"componentType":5126,
			"count":10895,
			"type":"VEC2"
		},
		{
			"bufferView":11,
			"componentType":5123,
			"count":54792,
			"type":"SCALAR"
		},
		{
			"bufferView":12,
			"componentType":5126,
			"count":559,
			"max":[
				0.9999997019767761,
				1,
				0.9999994039535522
			],
			"min":[
				-0.9999990463256836,
				-1,
				-0.9999987483024597
			],
			"type":"VEC3"
		},
		{
			"bufferView":13,
			"componentType":5126,
			"count":559,
			"type":"VEC3"
		},
		{
			"bufferView":14,
			"componentType":5126,
			"count":559,
			"type":"VEC2"
		},
		{
			"bufferView":15,
			"componentType":5123,
			"count":2880,
			"type":"SCALAR"
		},
		{
			"bufferView":16,
			"componentType":5126,
			"count":72,
			"max":[
				7.8271636962890625,
				1.561794638633728,
				5.270486354827881
			],
			"min":[
				-7.859901428222656,
				-1.6491756439208984,
				-5.231668472290039
			],
			"type":"VEC3"
		},
		{
			"bufferView":17,
			"componentType":5126,
			"count":72,
			"type":"VEC3"
		},
		{
			"bufferView":18,
			"componentType":5126,
			"count":72,
			"type":"VEC2"
		},
		{
			"bufferView":19,
			"componentType":5123,
			"count":108,
			"type":"SCALAR"
		},
		{
			"bufferView":20,
			"componentType":5126,
			"count":392,
			"max":[
				2.830601692199707,
				0.24471238255500793,
				0.3834952414035797
			],
			"min":[
				-0.9150632619857788,
				0.06299398094415665,
				-0.36162111163139343
			],
			"type":"VEC3"
		},
		{
			"bufferView":21,
			"componentType":5126,
			"count":392,
			"type":"VEC3"
		},
		{
			"bufferView":22,
			"componentType":5126,
			"count":392,
			"type":"VEC2"
		},
		{
			"bufferView":23,
			"componentType":5123,
			"count":588,
			"type":"SCALAR"
		},
		{
			"bufferView":24,
			"componentType":5126,
			"count":392,
			"max":[
				2.830601692199707,
				0.24471238255500793,
				0.3834952414035797
			],
			"min":[
				-0.9150632619857788,
				0.06299398094415665,
				-0.36162111163139343
			],
			"type":"VEC3"
		},
		{
			"bufferView":25,
			"componentType":5126,
			"count":392,
			"type":"VEC3"
		},
		{
			"bufferView":26,
			"componentType":5126,
			"count":392,
			"type":"VEC2"
		},
		{
			"bufferView":27,
			"componentType":5126,
			"count":392,
			"max":[
				0.8714733719825745,
				0.17706871032714844,
				-0.5237033367156982
			],
			"min":[
				-0.8714735507965088,
				-0.013761252164840698,
				-1.5175857543945312
			],
			"type":"VEC3"
		},
		{
			"bufferView":28,
			"componentType":5126,
			"count":392,
			"type":"VEC3"
		},
		{
			"bufferView":29,
			"componentType":5126,
			"count":72,
			"max":[
				8.11877155303955,
				3.9799747467041016,
				4.690622806549072
			],
			"min":[
				-8.001044273376465,
				-3.9684369564056396,
				-4.690622329711914
			],
			"type":"VEC3"
		},
		{
			"bufferView":30,
			"componentType":5126,
			"count":72,
			"type":"VEC3"
		},
		{
			"bufferView":31,
			"componentType":5126,
			"count":72,
			"type":"VEC2"
		},
		{
			"bufferView":32,
			"componentType":5126,
			"count":2055,
			"max":[
				2.4095497131347656,
				0.3415203094482422,
				-0.7675073146820068
			],
			"min":[
				-1.3780429363250732,
				-0.26712608337402344,
				-2.6027817726135254
			],
			"type":"VEC3"
		},
		{
			"bufferView":33,
			"componentType":5126,
			"count":2055,
			"type":"VEC3"
		},
		{
			"bufferView":34,
			"componentType":5126,
			"count":2055,
			"type":"VEC2"
		},
		{
			"bufferView":35,
			"componentType":5123,
			"count":3504,
			"type":"SCALAR"
		},
		{
			"bufferView":36,
			"componentType":5126,
			"count":1974,
			"max":[
				2.393028974533081,
				0.36269262433052063,
				-0.7659914493560791
			],
			"min":[
				-1.3945636749267578,
				-0.2459532767534256,
				-2.6012659072875977
			],
			"type":"VEC3"
		},
		{
			"bufferView":37,
			"componentType":5126,
			"count":1974,
			"type":"VEC3"
		},
		{
			"bufferView":38,
			"componentType":5126,
			"count":1974,
			"type":"VEC2"
		},
		{
			"bufferView":39,
			"componentType":5123,
			"count":3504,
			"type":"SCALAR"
		},
		{
			"bufferView":40,
			"componentType":5126,
			"count":384,
			"max":[
				4.962612152099609,
				-2.6041858196258545,
				-6.945670127868652
			],
			"min":[
				-4.962616443634033,
				-3.2442500591278076,
				-8.08205509185791
			],
			"type":"VEC3"
		},
		{
			"bufferView":41,
			"componentType":5126,
			"count":384,
			"type":"VEC3"
		},
		{
			"bufferView":42,
			"componentType":5126,
			"count":384,
			"type":"VEC2"
		},
		{
			"bufferView":43,
			"componentType":5123,
			"count":744,
			"type":"SCALAR"
		},
		{
			"bufferView":44,
			"componentType":5126,
			"count":384,
			"max":[
				1.1369845867156982,
				0.34116530418395996,
				0.4394402503967285
			],
			"min":[
				-1.1369845867156982,
				-0.24522852897644043,
				-0.15200138092041016
			],
			"type":"VEC3"
		},
		{
			"bufferView":45,
			"componentType":5126,
			"count":384,
			"type":"VEC3"
		},
		{
			"bufferView":46,
			"componentType":5126,
			"count":384,
			"max":[
				0.40584468841552734,
				0.24975037574768066,
				0.46317625045776367
			],
			"min":[
				-0.40584468841552734,
				-0.14804601669311523,
				-0.4085540771484375
			],
			"type":"VEC3"
		},
		{
			"bufferView":47,
			"componentType":5126,
			"count":384,
			"type":"VEC3"
		},
		{
			"bufferView":48,
			"componentType":5126,
			"count":228,
			"max":[
				-1.064373254776001,
				0.8297902345657349,
				1.2809362411499023
			],
			"min":[
				-2.3625471591949463,
				-0.8297902345657349,
				0.8200022578239441
			],
			"type":"VEC3"
		},
		{
			"bufferView":49,
			"componentType":5126,
			"count":228,
			"type":"VEC3"
		},
		{
			"bufferView":50,
			"componentType":5126,
			"count":228,
			"type":"VEC2"
		},
		{
			"bufferView":51,
			"componentType":5123,
			"count":864,
			"type":"SCALAR"
		},
		{
			"bufferView":52,
			"componentType":5126,
			"count":360,
			"max":[
				6
			],
			"min":[
				0.016666666666666666
			],
			"type":"SCALAR"
		},
		{
			"bufferView":53,
			"componentType":5126,
			"count":360,
			"type":"VEC4"
		},
		{
			"bufferView":54,
			"componentType":5126,
			"count":360,
			"type":"VEC4"
		},
		{
			"bufferView":55,
			"componentType":5126,
			"count":151,
			"max":[
				5.833333333333333
			],
			"min":[
				3.3333333333333335
			],
			"type":"SCALAR"
		},
		{
			"bufferView":56,
			"componentType":5126,
			"count":151,
			"type":"VEC4"
		},
		{
			"bufferView":57,
			"componentType":5126,
			"count":360,
			"type":"SCALAR"
		},
		{
			"bufferView":58,
			"componentType":5126,
			"count":151,
			"type":"VEC4"
		},
		{
			"bufferView":59,
			"componentType":5126,
			"count":360,
			"type":"VEC4"
		},
		{
			"bufferView":60,
			"componentType":5126,
			"count":360,
			"type":"VEC4"
		},
		{
			"bufferView":61,
			"componentType":5126,
			"count":720,
			"type":"SCALAR"
		}
	],
	"bufferViews":[
		{
			"buffer":0,
			"byteLength":14640,
			"byteOffset":0,
			"target":34962
		},
		{
			"buffer":0,
			"byteLength":14640,
			"byteOffset":14640,
			"target":34962
		},
		{
			"buffer":0,
			"byteLength":9760,
			"byteOffset":29280,
			"target":34962
		},
		{
			"buffer":0,
			"byteLength":12468,
			"byteOffset":39040,
			"target":34963
		},
		{
			"buffer":0,
			"byteLength":14640,
			"byteOffset":51508,
			"target":34962
		},
		{
			"buffer":0,
			"byteLength":14640,
			"byteOffset":66148,
			"target":34962
		},
		{
			"buffer":0,
			"byteLength":9760,
			"byteOffset":80788,
			"target":34962
		},
		{
			"buffer":0,
			"byteLength":12468,
			"byteOffset":90548,
			"target":34963
		},
		{
			"buffer":0,
			"byteLength":130740,
			"byteOffset":103016,
			"target":34962
		},
		{
			"buffer":0,
			"byteLength":130740,
			"byteOffset":233756,
			"target":34962
		},
		{
			"buffer":0,
			"byteLength":87160,
			"byteOffset":364496,
			"target":34962
		},
		{
			"buffer":0,
			"byteLength":109584,
			"byteOffset":451656,
			"target":34963
		},
		{
			"buffer":0,
			"byteLength":6708,
			"byteOffset":561240,
			"target":34962
		},
		{
			"buffer":0,
			"byteLength":6708,
			"byteOffset":567948,
			"target":34962
		},
		{
			"buffer":0,
			"byteLength":4472,
			"byteOffset":574656,
			"target":34962
		},
		{
			"buffer":0,
			"byteLength":5760,
			"byteOffset":579128,
			"target":34963
		},
		{
			"buffer":0,
			"byteLength":864,
			"byteOffset":584888,
			"target":34962
		},
		{
			"buffer":0,
			"byteLength":864,
			"byteOffset":585752,
			"target":34962
		},
		{
			"buffer":0,
			"byteLength":576,
			"byteOffset":586616,
			"target":34962
		},
		{
			"buffer":0,
			"byteLength":216,
			"byteOffset":587192,
			"target":34963
		},
		{
			"buffer":0,
			"byteLength":4704,
			"byteOffset":587408,
			"target":34962
		},
		{
			"buffer":0,
			"byteLength":4704,
			"byteOffset":592112,
			"target":34962
		},
		{
			"buffer":0,
			"byteLength":3136,
			"byteOffset":596816,
			"target":34962
		},
		{
			"buffer":0,
			"byteLength":1176,
			"byteOffset":599952,
			"target":34963
		},
		{
			"buffer":0,
			"byteLength":4704,
			"byteOffset":601128,
			"target":34962
		},
		{
			"buffer":0,
			"byteLength":4704,
			"byteOffset":605832,
			"target":34962
		},
		{
			"buffer":0,
			"byteLength":3136,
			"byteOffset":610536,
			"target":34962
		},
		{
			"buffer":0,
			"byteLength":4704,
			"byteOffset":613672,
			"target":34962
		},
		{
			"buffer":0,
			"byteLength":4704,
			"byteOffset":618376,
			"target":34962
		},
		{
			"buffer":0,
			"byteLength":864,
			"byteOffset":623080,
			"target":34962
		},
		{
			"buffer":0,
			"byteLength":864,
			"byteOffset":623944,
			"target":34962
		},
		{
			"buffer":0,
			"byteLength":576,
			"byteOffset":624808,
			"target":34962
		},
		{
			"buffer":0,
			"byteLength":24660,
			"byteOffset":625384,
			"target":34962
		},
		{
			"buffer":0,
			"byteLength":24660,
			"byteOffset":650044,
			"target":34962
		},
		{
			"buffer":0,
			"byteLength":16440,
			"byteOffset":674704,
			"target":34962
		},
		{
			"buffer":0,
			"byteLength":7008,
			"byteOffset":691144,
			"target":34963
		},
		{
			"buffer":0,
			"byteLength":23688,
			"byteOffset":698152,
			"target":34962
		},
		{
			"buffer":0,
			"byteLength":23688,
			"byteOffset":721840,
			"target":34962
		},
		{
			"buffer":0,
			"byteLength":15792,
			"byteOffset":745528,
			"target":34962
		},
		{
			"buffer":0,
			"byteLength":7008,
			"byteOffset":761320,
			"target":34963
		},
		{
			"buffer":0,
			"byteLength":4608,
			"byteOffset":768328,
			"target":34962
		},
		{
			"buffer":0,
			"byteLength":4608,
			"byteOffset":772936,
			"target":34962
		},
		{
			"buffer":0,
			"byteLength":3072,
			"byteOffset":777544,
			"target":34962
		},
		{
			"buffer":0,
			"byteLength":1488,
			"byteOffset":780616,
			"target":34963
		},
		{
			"buffer":0,
			"byteLength":4608,
			"byteOffset":782104,
			"target":34962
		},
		{
			"buffer":0,
			"byteLength":4608,
			"byteOffset":786712,
			"target":34962
		},
		{
			"buffer":0,
			"byteLength":4608,
			"byteOffset":791320,
			"target":34962
		},
		{
			"buffer":0,
			"byteLength":4608,
			"byteOffset":795928,
			"target":34962
		},
		{
			"buffer":0,
			"byteLength":2736,
			"byteOffset":800536,
			"target":34962
		},
		{
			"buffer":0,
			"byteLength":2736,
			"byteOffset":803272,
			"target":34962
		},
		{
			"buffer":0,
			"byteLength":1824,
			"byteOffset":806008,
			"target":34962
		},
		{
			"buffer":0,
			"byteLength":1728,
			"byteOffset":807832,
			"target":34963
		},
		{
			"buffer":0,
			"byteLength":1440,
			"byteOffset":809560
		},
		{
			"buffer":0,
			"byteLength":5760,
			"byteOffset":811000
		},
		{
			"buffer":0,
			"byteLength":5760,
			"byteOffset":816760
		},
		{
			"buffer":0,
			"byteLength":604,
			"byteOffset":822520
		},
		{
			"buffer":0,
			"byteLength":2416,
			"byteOffset":823124
		},
		{
			"buffer":0,
			"byteLength":1440,
			"byteOffset":825540
		},
		{
			"buffer":0,
			"byteLength":2416,
			"byteOffset":826980
		},
		{
			"buffer":0,
			"byteLength":5760,
			"byteOffset":829396
		},
		{
			"buffer":0,
			"byteLength":5760,
			"byteOffset":835156
		},
		{
			"buffer":0,
			"byteLength":2880,
			"byteOffset":840916
		}
	],
	"samplers":[
		{
			"magFilter":9729,
			"minFilter":9987
		}
	],
	"buffers":[
		{
			"byteLength":843796,
			"uri":"kuruton_pink.bin"
		}
	]
}
