{
	"asset":{
		"generator":"Khronos glTF Blender I/O v4.0.44",
		"version":"2.0"
	},
	"scene":0,
	"scenes":[
		{
			"name":"Scene",
			"nodes":[
				0,
				1,
				2
			]
		}
	],
	"nodes":[
		{
			"mesh":0,
			"name":"\u30c6\u30ad\u30b9\u30c8"
		},
		{
			"mesh":1,
			"name":"\u7acb\u65b9\u4f53.003",
			"rotation":[
				0,
				0.2817159593105316,
				0,
				0.95949786901474
			],
			"scale":[
				0.049556054174900055,
				0.09080516546964645,
				2.280451774597168
			],
			"translation":[
				-5.939617156982422,
				-0.030772000551223755,
				0.021168053150177002
			]
		},
		{
			"mesh":2,
			"name":"\u7acb\u65b9\u4f53.004",
			"rotation":[
				0,
				-0.2896151542663574,
				0,
				0.9571431875228882
			],
			"scale":[
				0.049556054174900055,
				0.09080516546964645,
				2.280452013015747
			],
			"translation":[
				5.857741355895996,
				-0.20325644314289093,
				0.030634447932243347
			]
		}
	],
	"materials":[
		{
			"doubleSided":true,
			"name":"\u30de\u30c6\u30ea\u30a2\u30eb",
			"pbrMetallicRoughness":{
				"baseColorFactor":[
					0,
					0.0010126656852662563,
					0.5688515901565552,
					1
				],
				"metallicFactor":0,
				"roughnessFactor":0.5
			}
		},
		{
			"doubleSided":true,
			"name":"\u30de\u30c6\u30ea\u30a2\u30eb.001",
			"pbrMetallicRoughness":{
				"baseColorFactor":[
					0,
					0.0010126656852662563,
					0.5688515901565552,
					1
				],
				"metallicFactor":0,
				"roughnessFactor":0.5
			}
		}
	],
	"meshes":[
		{
			"name":"\u30c6\u30ad\u30b9\u30c8.001",
			"primitives":[
				{
					"attributes":{
						"POSITION":0,
						"NORMAL":1,
						"TEXCOORD_0":2
					},
					"indices":3,
					"material":0
				}
			]
		},
		{
			"name":"\u7acb\u65b9\u4f53.003",
			"primitives":[
				{
					"attributes":{
						"POSITION":4,
						"NORMAL":5,
						"TEXCOORD_0":6
					},
					"indices":7,
					"material":0
				}
			]
		},
		{
			"name":"\u7acb\u65b9\u4f53.004",
			"primitives":[
				{
					"attributes":{
						"POSITION":8,
						"NORMAL":9,
						"TEXCOORD_0":10
					},
					"indices":7,
					"material":1
				}
			]
		}
	],
	"accessors":[
		{
			"bufferView":0,
			"componentType":5126,
			"count":15152,
			"max":[
				4.599586486816406,
				0.09999998658895493,
				0.5798791646957397
			],
			"min":[
				-4.375486850738525,
				-0.09999998658895493,
				-0.5551332235336304
			],
			"type":"VEC3"
		},
		{
			"bufferView":1,
			"componentType":5126,
			"count":15152,
			"type":"VEC3"
		},
		{
			"bufferView":2,
			"componentType":5126,
			"count":15152,
			"type":"VEC2"
		},
		{
			"bufferView":3,
			"componentType":5123,
			"count":75624,
			"type":"SCALAR"
		},
		{
			"bufferView":4,
			"componentType":5126,
			"count":24,
			"max":[
				1,
				1,
				1
			],
			"min":[
				-1,
				-1,
				-1
			],
			"type":"VEC3"
		},
		{
			"bufferView":5,
			"componentType":5126,
			"count":24,
			"type":"VEC3"
		},
		{
			"bufferView":6,
			"componentType":5126,
			"count":24,
			"type":"VEC2"
		},
		{
			"bufferView":7,
			"componentType":5123,
			"count":36,
			"type":"SCALAR"
		},
		{
			"bufferView":8,
			"componentType":5126,
			"count":24,
			"max":[
				1,
				1,
				1
			],
			"min":[
				-1,
				-1,
				-1
			],
			"type":"VEC3"
		},
		{
			"bufferView":9,
			"componentType":5126,
			"count":24,
			"type":"VEC3"
		},
		{
			"bufferView":10,
			"componentType":5126,
			"count":24,
			"type":"VEC2"
		}
	],
	"bufferViews":[
		{
			"buffer":0,
			"byteLength":181824,
			"byteOffset":0,
			"target":34962
		},
		{
			"buffer":0,
			"byteLength":181824,
			"byteOffset":181824,
			"target":34962
		},
		{
			"buffer":0,
			"byteLength":121216,
			"byteOffset":363648,
			"target":34962
		},
		{
			"buffer":0,
			"byteLength":151248,
			"byteOffset":484864,
			"target":34963
		},
		{
			"buffer":0,
			"byteLength":288,
			"byteOffset":636112,
			"target":34962
		},
		{
			"buffer":0,
			"byteLength":288,
			"byteOffset":636400,
			"target":34962
		},
		{
			"buffer":0,
			"byteLength":192,
			"byteOffset":636688,
			"target":34962
		},
		{
			"buffer":0,
			"byteLength":72,
			"byteOffset":636880,
			"target":34963
		},
		{
			"buffer":0,
			"byteLength":288,
			"byteOffset":636952,
			"target":34962
		},
		{
			"buffer":0,
			"byteLength":288,
			"byteOffset":637240,
			"target":34962
		},
		{
			"buffer":0,
			"byteLength":192,
			"byteOffset":637528,
			"target":34962
		}
	],
	"buffers":[
		{
			"byteLength":637720,
			"uri":"thankyou.bin"
		}
	]
}
